<svg xmlns="http://www.w3.org/2000/svg" xmlns:xlink="http://www.w3.org/1999/xlink" version="1.1" width="256" height="256" viewBox="0 0 256 256" xml:space="preserve">

<defs>
</defs>
<g style="stroke: none; stroke-width: 0; stroke-dasharray: none; stroke-linecap: butt; stroke-linejoin: miter; stroke-miterlimit: 10; fill: none; fill-rule: nonzero; opacity: 1;" transform="translate(1.4065934065934016 1.4065934065934016) scale(2.81 2.81)" >
	<path d="M 4.942 48.169 h -1.3 c -0.552 0 -1 -0.447 -1 -1 s 0.448 -1 1 -1 h 1.3 c 0.552 0 1 0.447 1 1 S 5.494 48.169 4.942 48.169 z" style="stroke: none; stroke-width: 1; stroke-dasharray: none; stroke-linecap: butt; stroke-linejoin: miter; stroke-miterlimit: 10; fill: rgb(248,134,15); fill-rule: nonzero; opacity: 1;" transform=" matrix(1 0 0 1 0 0) " stroke-linecap="round" />
	<path d="M 11.46 48.169 H 10.16 c -0.552 0 -1 -0.447 -1 -1 s 0.448 -1 1 -1 h 1.301 c 0.552 0 1 0.447 1 1 S 12.013 48.169 11.46 48.169 z" style="stroke: none; stroke-width: 1; stroke-dasharray: none; stroke-linecap: butt; stroke-linejoin: miter; stroke-miterlimit: 10; fill: rgb(248,134,15); fill-rule: nonzero; opacity: 1;" transform=" matrix(1 0 0 1 0 0) " stroke-linecap="round" />
	<path d="M 7.551 45.56 c -0.552 0 -1 -0.448 -1 -1 v -1.301 c 0 -0.552 0.448 -1 1 -1 s 1 0.448 1 1 v 1.301 C 8.551 45.112 8.103 45.56 7.551 45.56 z" style="stroke: none; stroke-width: 1; stroke-dasharray: none; stroke-linecap: butt; stroke-linejoin: miter; stroke-miterlimit: 10; fill: rgb(248,134,15); fill-rule: nonzero; opacity: 1;" transform=" matrix(1 0 0 1 0 0) " stroke-linecap="round" />
	<path d="M 7.551 52.078 c -0.552 0 -1 -0.447 -1 -1 v -1.301 c 0 -0.553 0.448 -1 1 -1 s 1 0.447 1 1 v 1.301 C 8.551 51.631 8.103 52.078 7.551 52.078 z" style="stroke: none; stroke-width: 1; stroke-dasharray: none; stroke-linecap: butt; stroke-linejoin: miter; stroke-miterlimit: 10; fill: rgb(248,134,15); fill-rule: nonzero; opacity: 1;" transform=" matrix(1 0 0 1 0 0) " stroke-linecap="round" />
	<path d="M 83.85 19.77 c -0.13 0 -0.26 -0.03 -0.39 -0.08 c -0.12 -0.05 -0.23 -0.12 -0.32 -0.22 c -0.09 -0.09 -0.17 -0.2 -0.22 -0.32 s -0.07 -0.25 -0.07 -0.38 c 0 -0.27 0.101 -0.53 0.29 -0.71 c 0.09 -0.09 0.2 -0.17 0.32 -0.22 c 0.189 -0.07 0.39 -0.09 0.58 -0.05 c 0.069 0.01 0.13 0.03 0.189 0.05 c 0.061 0.03 0.12 0.06 0.17 0.1 c 0.061 0.03 0.11 0.07 0.15 0.12 c 0.19 0.19 0.3 0.44 0.3 0.71 c 0 0.26 -0.109 0.52 -0.3 0.7 C 84.37 19.66 84.109 19.77 83.85 19.77 z" style="stroke: none; stroke-width: 1; stroke-dasharray: none; stroke-linecap: butt; stroke-linejoin: miter; stroke-miterlimit: 10; fill: rgb(248,134,15); fill-rule: nonzero; opacity: 1;" transform=" matrix(1 0 0 1 0 0) " stroke-linecap="round" />
	<path d="M 53.359 8.359 h -1.301 c -0.553 0 -1 -0.448 -1 -1 s 0.447 -1 1 -1 h 1.301 c 0.553 0 1 0.448 1 1 S 53.912 8.359 53.359 8.359 z" style="stroke: none; stroke-width: 1; stroke-dasharray: none; stroke-linecap: butt; stroke-linejoin: miter; stroke-miterlimit: 10; fill: rgb(248,134,15); fill-rule: nonzero; opacity: 1;" transform=" matrix(1 0 0 1 0 0) " stroke-linecap="round" />
	<path d="M 59.877 8.359 h -1.3 c -0.553 0 -1 -0.448 -1 -1 s 0.447 -1 1 -1 h 1.3 c 0.553 0 1 0.448 1 1 S 60.43 8.359 59.877 8.359 z" style="stroke: none; stroke-width: 1; stroke-dasharray: none; stroke-linecap: butt; stroke-linejoin: miter; stroke-miterlimit: 10; fill: rgb(248,134,15); fill-rule: nonzero; opacity: 1;" transform=" matrix(1 0 0 1 0 0) " stroke-linecap="round" />
	<path d="M 55.968 5.75 c -0.553 0 -1 -0.448 -1 -1 V 3.45 c 0 -0.552 0.447 -1 1 -1 s 1 0.448 1 1 V 4.75 C 56.968 5.303 56.521 5.75 55.968 5.75 z" style="stroke: none; stroke-width: 1; stroke-dasharray: none; stroke-linecap: butt; stroke-linejoin: miter; stroke-miterlimit: 10; fill: rgb(248,134,15); fill-rule: nonzero; opacity: 1;" transform=" matrix(1 0 0 1 0 0) " stroke-linecap="round" />
	<path d="M 55.968 12.269 c -0.553 0 -1 -0.448 -1 -1 V 9.968 c 0 -0.552 0.447 -1 1 -1 s 1 0.448 1 1 v 1.301 C 56.968 11.821 56.521 12.269 55.968 12.269 z" style="stroke: none; stroke-width: 1; stroke-dasharray: none; stroke-linecap: butt; stroke-linejoin: miter; stroke-miterlimit: 10; fill: rgb(248,134,15); fill-rule: nonzero; opacity: 1;" transform=" matrix(1 0 0 1 0 0) " stroke-linecap="round" />
	<path d="M 83.85 71.609 c -0.14 0 -0.27 -0.029 -0.39 -0.079 c -0.12 -0.051 -0.23 -0.12 -0.32 -0.221 c -0.09 -0.09 -0.17 -0.2 -0.22 -0.319 c -0.05 -0.12 -0.07 -0.25 -0.07 -0.381 c 0 -0.27 0.101 -0.52 0.29 -0.71 c 0.23 -0.229 0.57 -0.34 0.9 -0.27 c 0.069 0.01 0.13 0.03 0.189 0.05 c 0.061 0.03 0.12 0.061 0.17 0.101 c 0.061 0.029 0.11 0.069 0.15 0.119 c 0.19 0.19 0.3 0.45 0.3 0.71 c 0 0.131 -0.03 0.261 -0.08 0.381 c -0.05 0.119 -0.12 0.229 -0.22 0.319 C 84.37 71.5 84.109 71.609 83.85 71.609 z" style="stroke: none; stroke-width: 1; stroke-dasharray: none; stroke-linecap: butt; stroke-linejoin: miter; stroke-miterlimit: 10; fill: rgb(248,134,15); fill-rule: nonzero; opacity: 1;" transform=" matrix(1 0 0 1 0 0) " stroke-linecap="round" />
	<path d="M 1 27.3 c -0.26 0 -0.52 -0.11 -0.71 -0.29 c -0.09 -0.1 -0.16 -0.21 -0.21 -0.33 C 0.03 26.56 0 26.43 0 26.3 c 0 -0.07 0.01 -0.13 0.02 -0.2 c 0.01 -0.06 0.03 -0.12 0.06 -0.18 c 0.02 -0.06 0.05 -0.12 0.09 -0.18 c 0.03 -0.05 0.08 -0.1 0.12 -0.15 c 0.37 -0.37 1.05 -0.37 1.42 0 c 0.04 0.05 0.08 0.1 0.12 0.15 c 0.04 0.06 0.07 0.12 0.09 0.18 c 0.03 0.06 0.05 0.12 0.06 0.18 C 1.99 26.17 2 26.23 2 26.3 c 0 0.13 -0.03 0.26 -0.08 0.38 c -0.05 0.12 -0.12 0.23 -0.21 0.33 c -0.05 0.04 -0.1 0.08 -0.15 0.12 c -0.06 0.04 -0.12 0.07 -0.18 0.09 c -0.06 0.03 -0.12 0.05 -0.19 0.06 C 1.13 27.29 1.06 27.3 1 27.3 z" style="stroke: none; stroke-width: 1; stroke-dasharray: none; stroke-linecap: butt; stroke-linejoin: miter; stroke-miterlimit: 10; fill: rgb(248,134,15); fill-rule: nonzero; opacity: 1;" transform=" matrix(1 0 0 1 0 0) " stroke-linecap="round" />
	<path d="M 33.025 35.673 c -2.804 0 -5 -1.584 -5 -3.607 s 2.196 -3.608 5 -3.608 s 5 1.585 5 3.608 S 35.829 35.673 33.025 35.673 z M 33.025 30.458 c -1.717 0 -3 0.849 -3 1.608 s 1.283 1.607 3 1.607 s 3 -0.849 3 -1.607 S 34.742 30.458 33.025 30.458 z" style="stroke: none; stroke-width: 1; stroke-dasharray: none; stroke-linecap: butt; stroke-linejoin: miter; stroke-miterlimit: 10; fill: rgb(248,134,15); fill-rule: nonzero; opacity: 1;" transform=" matrix(1 0 0 1 0 0) " stroke-linecap="round" />
	<path d="M 77.326 59.614 c -3.223 0 -5.844 -2.621 -5.844 -5.844 s 2.621 -5.844 5.844 -5.844 s 5.844 2.621 5.844 5.844 S 80.549 59.614 77.326 59.614 z M 77.326 49.927 c -2.119 0 -3.844 1.725 -3.844 3.844 s 1.725 3.844 3.844 3.844 s 3.844 -1.725 3.844 -3.844 S 79.445 49.927 77.326 49.927 z" style="stroke: none; stroke-width: 1; stroke-dasharray: none; stroke-linecap: butt; stroke-linejoin: miter; stroke-miterlimit: 10; fill: rgb(0,35,86); fill-rule: nonzero; opacity: 1;" transform=" matrix(1 0 0 1 0 0) " stroke-linecap="round" />
	<path d="M 20.302 16.577 c -3.222 0 -5.844 -2.622 -5.844 -5.844 S 17.08 4.89 20.302 4.89 s 5.844 2.622 5.844 5.844 S 23.524 16.577 20.302 16.577 z M 20.302 6.89 c -2.12 0 -3.844 1.724 -3.844 3.844 s 1.724 3.844 3.844 3.844 s 3.844 -1.724 3.844 -3.844 S 22.421 6.89 20.302 6.89 z" style="stroke: none; stroke-width: 1; stroke-dasharray: none; stroke-linecap: butt; stroke-linejoin: miter; stroke-miterlimit: 10; fill: rgb(0,35,86); fill-rule: nonzero; opacity: 1;" transform=" matrix(1 0 0 1 0 0) " stroke-linecap="round" />
	<path d="M 7.46 68.18 c -0.27 0 -0.52 -0.1 -0.71 -0.29 c -0.09 -0.09 -0.17 -0.2 -0.22 -0.32 c -0.05 -0.13 -0.07 -0.25 -0.07 -0.39 c 0 -0.26 0.1 -0.52 0.29 -0.7 c 0.37 -0.38 1.04 -0.38 1.41 0 c 0.19 0.181 0.3 0.44 0.3 0.7 c 0 0.14 -0.03 0.26 -0.08 0.39 c -0.05 0.12 -0.12 0.23 -0.22 0.32 C 7.98 68.08 7.73 68.18 7.46 68.18 z" style="stroke: none; stroke-width: 1; stroke-dasharray: none; stroke-linecap: butt; stroke-linejoin: miter; stroke-miterlimit: 10; fill: rgb(0,35,86); fill-rule: nonzero; opacity: 1;" transform=" matrix(1 0 0 1 0 0) " stroke-linecap="round" />
	<path d="M 28.767 81.305 c -2.975 0 -5.396 -2.421 -5.396 -5.396 V 62.113 c -0.691 0.451 -1.516 0.714 -2.401 0.714 c -2.427 0 -4.401 -1.975 -4.401 -4.401 V 48.151 c 0 -4.281 2.686 -8.184 6.683 -9.711 c 0.516 -0.196 1.094 0.061 1.291 0.577 c 0.197 0.516 -0.061 1.094 -0.577 1.291 c -3.228 1.234 -5.397 4.386 -5.397 7.843 v 10.274 c 0 1.324 1.077 2.401 2.401 2.401 s 2.401 -1.077 2.401 -2.401 V 47.991 c 0 -0.553 0.448 -1 1 -1 s 1 0.447 1 1 v 27.918 c 0 1.872 1.523 3.396 3.396 3.396 s 3.395 -1.523 3.395 -3.396 V 62.204 c 0 -0.553 0.448 -1 1 -1 s 1 0.447 1 1 v 13.705 C 34.162 78.884 31.741 81.305 28.767 81.305 z" style="stroke: none; stroke-width: 1; stroke-dasharray: none; stroke-linecap: butt; stroke-linejoin: miter; stroke-miterlimit: 10; fill: rgb(0,35,86); fill-rule: nonzero; opacity: 1;" transform=" matrix(1 0 0 1 0 0) " stroke-linecap="round" />
	<path d="M 33.025 41.289 c -5.086 0 -9.224 -4.138 -9.224 -9.223 c 0 -5.086 4.138 -9.224 9.224 -9.224 s 9.224 4.138 9.224 9.224 C 42.249 37.151 38.111 41.289 33.025 41.289 z M 33.025 24.842 c -3.983 0 -7.224 3.241 -7.224 7.224 s 3.241 7.223 7.224 7.223 s 7.224 -3.24 7.224 -7.223 S 37.008 24.842 33.025 24.842 z" style="stroke: none; stroke-width: 1; stroke-dasharray: none; stroke-linecap: butt; stroke-linejoin: miter; stroke-miterlimit: 10; fill: rgb(0,35,86); fill-rule: nonzero; opacity: 1;" transform=" matrix(1 0 0 1 0 0) " stroke-linecap="round" />
	<path d="M 36.7 53.296 h -7.348 c -0.552 0 -1 -0.447 -1 -1 v -6.413 c 0 -0.552 0.448 -1 1 -1 H 36.7 c 0.552 0 1 0.448 1 1 v 6.413 C 37.7 52.849 37.252 53.296 36.7 53.296 z M 30.352 51.296 H 35.7 v -4.412 h -5.348 V 51.296 z" style="stroke: none; stroke-width: 1; stroke-dasharray: none; stroke-linecap: butt; stroke-linejoin: miter; stroke-miterlimit: 10; fill: rgb(0,35,86); fill-rule: nonzero; opacity: 1;" transform=" matrix(1 0 0 1 0 0) " stroke-linecap="round" />
	<path d="M 51.087 40.751 h -7.272 c -0.552 0 -1 -0.448 -1 -1 s 0.448 -1 1 -1 h 7.272 c 0.553 0 1 0.448 1 1 S 51.64 40.751 51.087 40.751 z" style="stroke: none; stroke-width: 1; stroke-dasharray: none; stroke-linecap: butt; stroke-linejoin: miter; stroke-miterlimit: 10; fill: rgb(0,35,86); fill-rule: nonzero; opacity: 1;" transform=" matrix(1 0 0 1 0 0) " stroke-linecap="round" />
	<path d="M 37.421 81.305 c -2.975 0 -5.396 -2.42 -5.396 -5.396 V 62.204 c 0 -0.553 0.448 -1 1 -1 s 1 0.447 1 1 v 13.705 c 0 1.872 1.523 3.396 3.396 3.396 s 3.395 -1.523 3.395 -3.396 V 46.555 c 0 -0.553 0.448 -1 1 -1 h 9.271 c 0.553 0 1 0.447 1 1 s -0.447 1 -1 1 h -8.271 v 28.354 C 42.816 78.885 40.396 81.305 37.421 81.305 z" style="stroke: none; stroke-width: 1; stroke-dasharray: none; stroke-linecap: butt; stroke-linejoin: miter; stroke-miterlimit: 10; fill: rgb(0,35,86); fill-rule: nonzero; opacity: 1;" transform=" matrix(1 0 0 1 0 0) " stroke-linecap="round" />
	<path d="M 57.358 47.308 c -0.396 0 -0.772 -0.237 -0.929 -0.629 c -0.205 -0.513 0.045 -1.095 0.558 -1.3 c 0.92 -0.368 1.515 -1.241 1.515 -2.226 s -0.595 -1.858 -1.515 -2.226 c -0.513 -0.205 -0.763 -0.787 -0.558 -1.3 c 0.205 -0.513 0.787 -0.761 1.3 -0.558 c 1.685 0.673 2.772 2.276 2.772 4.083 s -1.088 3.411 -2.772 4.083 C 57.607 47.285 57.482 47.308 57.358 47.308 z" style="stroke: none; stroke-width: 1; stroke-dasharray: none; stroke-linecap: butt; stroke-linejoin: miter; stroke-miterlimit: 10; fill: rgb(0,35,86); fill-rule: nonzero; opacity: 1;" transform=" matrix(1 0 0 1 0 0) " stroke-linecap="round" />
	<path d="M 54.484 81.305 c -0.553 0 -1 -0.447 -1 -1 V 50.912 c 0 -0.553 0.447 -1 1 -1 s 1 0.447 1 1 v 29.393 C 55.484 80.857 55.037 81.305 54.484 81.305 z" style="stroke: none; stroke-width: 1; stroke-dasharray: none; stroke-linecap: butt; stroke-linejoin: miter; stroke-miterlimit: 10; fill: rgb(248,134,15); fill-rule: nonzero; opacity: 1;" transform=" matrix(1 0 0 1 0 0) " stroke-linecap="round" />
	<path d="M 54.484 51.912 c -0.553 0 -1 -0.447 -1 -1 V 19.174 c 0 -0.552 0.447 -1 1 -1 s 1 0.448 1 1 v 31.738 C 55.484 51.465 55.037 51.912 54.484 51.912 z" style="stroke: none; stroke-width: 1; stroke-dasharray: none; stroke-linecap: butt; stroke-linejoin: miter; stroke-miterlimit: 10; fill: rgb(248,134,15); fill-rule: nonzero; opacity: 1;" transform=" matrix(1 0 0 1 0 0) " stroke-linecap="round" />
	<path d="M 74.394 32.003 h -14.94 c -0.553 0 -1 -0.448 -1 -1 s 0.447 -1 1 -1 h 13.94 v -9.829 H 54.484 c -0.553 0 -1 -0.448 -1 -1 s 0.447 -1 1 -1 h 19.909 c 0.553 0 1 0.448 1 1 v 11.829 C 75.394 31.555 74.946 32.003 74.394 32.003 z" style="stroke: none; stroke-width: 1; stroke-dasharray: none; stroke-linecap: butt; stroke-linejoin: miter; stroke-miterlimit: 10; fill: rgb(248,134,15); fill-rule: nonzero; opacity: 1;" transform=" matrix(1 0 0 1 0 0) " stroke-linecap="round" />
	<path d="M 2.962 87.55 c -0.271 0 -0.541 -0.109 -0.738 -0.325 c -0.373 -0.407 -0.345 -1.039 0.063 -1.412 c 3.538 -3.239 9.011 -6.041 15.829 -8.104 c 0.525 -0.16 1.087 0.139 1.247 0.667 c 0.16 0.529 -0.139 1.087 -0.667 1.247 C 12.161 81.6 6.955 84.25 3.637 87.287 C 3.445 87.463 3.203 87.55 2.962 87.55 z" style="stroke: none; stroke-width: 1; stroke-dasharray: none; stroke-linecap: butt; stroke-linejoin: miter; stroke-miterlimit: 10; fill: rgb(0,35,86); fill-rule: nonzero; opacity: 1;" transform=" matrix(1 0 0 1 0 0) " stroke-linecap="round" />
	<path d="M 50.057 76.003 c -0.013 0 -0.024 0 -0.036 -0.001 c -1.334 -0.047 -2.693 -0.071 -4.04 -0.071 c -0.552 0 -1 -0.447 -1 -1 s 0.448 -1 1 -1 c 1.37 0 2.752 0.024 4.11 0.073 c 0.553 0.02 0.983 0.482 0.964 1.034 C 51.036 75.578 50.592 76.003 50.057 76.003 z" style="stroke: none; stroke-width: 1; stroke-dasharray: none; stroke-linecap: butt; stroke-linejoin: miter; stroke-miterlimit: 10; fill: rgb(0,35,86); fill-rule: nonzero; opacity: 1;" transform=" matrix(1 0 0 1 0 0) " stroke-linecap="round" />
	<path d="M 89 87.55 c -0.241 0 -0.483 -0.087 -0.676 -0.263 c -5.556 -5.087 -16.106 -8.929 -28.946 -10.539 c -0.549 -0.068 -0.937 -0.568 -0.868 -1.116 s 0.564 -0.934 1.116 -0.868 c 13.242 1.661 24.194 5.688 30.049 11.049 c 0.408 0.373 0.436 1.005 0.063 1.412 C 89.54 87.44 89.271 87.55 89 87.55 z" style="stroke: none; stroke-width: 1; stroke-dasharray: none; stroke-linecap: butt; stroke-linejoin: miter; stroke-miterlimit: 10; fill: rgb(0,35,86); fill-rule: nonzero; opacity: 1;" transform=" matrix(1 0 0 1 0 0) " stroke-linecap="round" />
</g>
</svg>