<svg xmlns="http://www.w3.org/2000/svg" xmlns:xlink="http://www.w3.org/1999/xlink" version="1.1" width="256" height="256" viewBox="0 0 256 256" xml:space="preserve">

<defs>
</defs>
<g style="stroke: none; stroke-width: 0; stroke-dasharray: none; stroke-linecap: butt; stroke-linejoin: miter; stroke-miterlimit: 10; fill: none; fill-rule: nonzero; opacity: 1;" transform="translate(1.4065934065934016 1.4065934065934016) scale(2.81 2.81)" >
	<path d="M 8.02 29.524 c -2.095 0 -3.799 -1.705 -3.799 -3.799 s 1.705 -3.799 3.799 -3.799 s 3.799 1.704 3.799 3.799 S 10.115 29.524 8.02 29.524 z M 8.02 23.926 c -0.992 0 -1.799 0.807 -1.799 1.799 c 0 0.992 0.807 1.799 1.799 1.799 c 0.992 0 1.799 -0.807 1.799 -1.799 C 9.819 24.733 9.012 23.926 8.02 23.926 z" style="stroke: none; stroke-width: 1; stroke-dasharray: none; stroke-linecap: butt; stroke-linejoin: miter; stroke-miterlimit: 10; fill: rgb(0,35,86); fill-rule: nonzero; opacity: 1;" transform=" matrix(1 0 0 1 0 0) " stroke-linecap="round" />
	<path d="M 58.28 76.351 c -2.095 0 -3.799 -1.704 -3.799 -3.799 c 0 -2.096 1.704 -3.8 3.799 -3.8 s 3.799 1.704 3.799 3.8 C 62.079 74.646 60.375 76.351 58.28 76.351 z M 58.28 70.752 c -0.992 0 -1.799 0.808 -1.799 1.8 s 0.807 1.799 1.799 1.799 s 1.799 -0.807 1.799 -1.799 S 59.272 70.752 58.28 70.752 z" style="stroke: none; stroke-width: 1; stroke-dasharray: none; stroke-linecap: butt; stroke-linejoin: miter; stroke-miterlimit: 10; fill: rgb(0,35,86); fill-rule: nonzero; opacity: 1;" transform=" matrix(1 0 0 1 0 0) " stroke-linecap="round" />
	<path d="M 74.565 55.452 c -2.276 0 -4.553 -0.866 -6.286 -2.6 c -1.68 -1.68 -2.604 -3.912 -2.604 -6.287 s 0.925 -4.608 2.604 -6.287 c 1.259 -1.26 2.846 -2.104 4.589 -2.442 c 1.466 -0.281 2.988 -0.193 4.405 0.258 c 1.342 0.428 2.579 1.183 3.579 2.184 c 1.68 1.679 2.604 3.912 2.604 6.287 s -0.925 4.607 -2.604 6.287 C 79.119 54.586 76.843 55.452 74.565 55.452 z M 74.564 39.674 c -0.44 0 -0.882 0.042 -1.315 0.126 c -1.35 0.261 -2.579 0.916 -3.556 1.892 l 0 0 c -1.302 1.302 -2.019 3.032 -2.019 4.873 s 0.717 3.571 2.019 4.873 c 1.302 1.301 3.032 2.018 4.872 2.018 c 1.841 0 3.571 -0.717 4.873 -2.018 c 1.302 -1.302 2.019 -3.032 2.019 -4.873 s -0.717 -3.571 -2.019 -4.873 c -0.786 -0.787 -1.719 -1.356 -2.772 -1.692 C 75.986 39.784 75.275 39.674 74.564 39.674 z M 68.986 40.985 h 0.01 H 68.986 z" style="stroke: none; stroke-width: 1; stroke-dasharray: none; stroke-linecap: butt; stroke-linejoin: miter; stroke-miterlimit: 10; fill: rgb(0,35,86); fill-rule: nonzero; opacity: 1;" transform=" matrix(1 0 0 1 0 0) " stroke-linecap="round" />
	<path d="M 61.954 40.785 H 14.786 c -0.552 0 -1 -0.448 -1 -1 s 0.448 -1 1 -1 h 47.168 c 0.553 0 1 0.448 1 1 S 62.507 40.785 61.954 40.785 z" style="stroke: none; stroke-width: 1; stroke-dasharray: none; stroke-linecap: butt; stroke-linejoin: miter; stroke-miterlimit: 10; fill: rgb(0,35,86); fill-rule: nonzero; opacity: 1;" transform=" matrix(1 0 0 1 0 0) " stroke-linecap="round" />
	<path d="M 61.954 55.456 H 25.307 c -0.552 0 -1 -0.447 -1 -1 s 0.448 -1 1 -1 h 36.647 c 0.553 0 1 0.447 1 1 S 62.507 55.456 61.954 55.456 z" style="stroke: none; stroke-width: 1; stroke-dasharray: none; stroke-linecap: butt; stroke-linejoin: miter; stroke-miterlimit: 10; fill: rgb(0,35,86); fill-rule: nonzero; opacity: 1;" transform=" matrix(1 0 0 1 0 0) " stroke-linecap="round" />
	<path d="M 18.506 69.465 h -1.165 c -0.552 0 -1 -0.447 -1 -1 s 0.448 -1 1 -1 h 1.165 c 0.552 0 1 0.447 1 1 S 19.058 69.465 18.506 69.465 z" style="stroke: none; stroke-width: 1; stroke-dasharray: none; stroke-linecap: butt; stroke-linejoin: miter; stroke-miterlimit: 10; fill: rgb(248,134,15); fill-rule: nonzero; opacity: 1;" transform=" matrix(1 0 0 1 0 0) " stroke-linecap="round" />
	<path d="M 74.566 61.999 H 39.09 c -0.552 0 -1 -0.447 -1 -1 s 0.448 -1 1 -1 h 35.476 C 81.974 59.999 88 53.973 88 46.565 c 0 -2.171 -0.501 -4.242 -1.49 -6.156 c -1.032 -1.999 -2.565 -3.723 -4.434 -4.984 c -2.221 -1.5 -4.817 -2.293 -7.51 -2.293 H 24.519 c -0.552 0 -1 -0.448 -1 -1 s 0.448 -1 1 -1 h 50.047 c 3.093 0 6.077 0.912 8.629 2.636 c 2.146 1.449 3.906 3.428 5.092 5.724 c 1.12 2.17 1.713 4.616 1.713 7.074 C 90 55.075 83.076 61.999 74.566 61.999 z" style="stroke: none; stroke-width: 1; stroke-dasharray: none; stroke-linecap: butt; stroke-linejoin: miter; stroke-miterlimit: 10; fill: rgb(248,134,15); fill-rule: nonzero; opacity: 1;" transform=" matrix(1 0 0 1 0 0) " stroke-linecap="round" />
	<path d="M 77.95 85.03 c -0.131 0 -0.261 -0.021 -0.381 -0.07 c -0.119 -0.05 -0.229 -0.12 -0.319 -0.22 c -0.101 -0.091 -0.17 -0.2 -0.22 -0.32 c -0.051 -0.12 -0.08 -0.25 -0.08 -0.39 c 0 -0.261 0.109 -0.521 0.3 -0.7 c 0.359 -0.37 1.04 -0.37 1.41 0 c 0.189 0.18 0.29 0.439 0.29 0.7 c 0 0.14 -0.021 0.27 -0.07 0.39 s -0.13 0.229 -0.22 0.32 c -0.091 0.1 -0.2 0.17 -0.32 0.22 S 78.09 85.03 77.95 85.03 z" style="stroke: none; stroke-width: 1; stroke-dasharray: none; stroke-linecap: butt; stroke-linejoin: miter; stroke-miterlimit: 10; fill: rgb(248,134,15); fill-rule: nonzero; opacity: 1;" transform=" matrix(1 0 0 1 0 0) " stroke-linecap="round" />
	<path d="M 29.06 10.82 c -0.06 0 -0.13 -0.01 -0.19 -0.02 c -0.07 -0.01 -0.13 -0.03 -0.19 -0.06 c -0.06 -0.02 -0.12 -0.06 -0.17 -0.09 c -0.06 -0.04 -0.11 -0.08 -0.15 -0.13 c -0.05 -0.04 -0.09 -0.09 -0.13 -0.15 c -0.03 -0.05 -0.07 -0.11 -0.09 -0.17 c -0.03 -0.06 -0.04 -0.12 -0.06 -0.19 c -0.01 -0.06 -0.02 -0.13 -0.02 -0.19 c 0 -0.13 0.03 -0.26 0.08 -0.39 c 0.05 -0.12 0.12 -0.23 0.22 -0.32 c 0.04 -0.05 0.09 -0.09 0.15 -0.12 c 0.05 -0.04 0.11 -0.07 0.17 -0.1 c 0.06 -0.02 0.12 -0.04 0.19 -0.05 c 0.19 -0.04 0.39 -0.02 0.58 0.05 c 0.12 0.05 0.23 0.13 0.32 0.22 c 0.09 0.09 0.17 0.2 0.22 0.32 c 0.05 0.13 0.07 0.26 0.07 0.39 c 0 0.06 0 0.13 -0.02 0.19 c -0.01 0.07 -0.03 0.13 -0.05 0.19 c -0.03 0.06 -0.06 0.12 -0.1 0.17 c -0.03 0.06 -0.07 0.11 -0.12 0.15 c -0.09 0.1 -0.2 0.17 -0.32 0.22 C 29.32 10.79 29.19 10.82 29.06 10.82 z" style="stroke: none; stroke-width: 1; stroke-dasharray: none; stroke-linecap: butt; stroke-linejoin: miter; stroke-miterlimit: 10; fill: rgb(248,134,15); fill-rule: nonzero; opacity: 1;" transform=" matrix(1 0 0 1 0 0) " stroke-linecap="round" />
	<path d="M 26.94 84.439 c -0.13 0 -0.26 -0.02 -0.38 -0.069 c -0.12 -0.051 -0.23 -0.12 -0.32 -0.221 c -0.19 -0.189 -0.3 -0.439 -0.3 -0.699 c 0 -0.131 0.03 -0.261 0.08 -0.391 c 0.05 -0.12 0.12 -0.229 0.22 -0.319 c 0.09 -0.091 0.2 -0.171 0.32 -0.221 c 0.24 -0.1 0.52 -0.1 0.77 0 c 0.12 0.05 0.23 0.13 0.32 0.221 c 0.09 0.09 0.17 0.199 0.22 0.319 c 0.05 0.13 0.07 0.26 0.07 0.391 c 0 0.26 -0.1 0.51 -0.29 0.699 c -0.09 0.101 -0.2 0.17 -0.32 0.221 C 27.21 84.42 27.08 84.439 26.94 84.439 z" style="stroke: none; stroke-width: 1; stroke-dasharray: none; stroke-linecap: butt; stroke-linejoin: miter; stroke-miterlimit: 10; fill: rgb(248,134,15); fill-rule: nonzero; opacity: 1;" transform=" matrix(1 0 0 1 0 0) " stroke-linecap="round" />
	<path d="M 49.569 21.48 c -0.069 0 -0.13 -0.01 -0.199 -0.02 c -0.061 -0.01 -0.12 -0.03 -0.181 -0.06 c -0.069 -0.02 -0.12 -0.05 -0.18 -0.09 c -0.05 -0.03 -0.1 -0.08 -0.15 -0.12 c -0.05 -0.05 -0.09 -0.1 -0.119 -0.15 c -0.04 -0.06 -0.07 -0.12 -0.091 -0.18 c -0.029 -0.06 -0.05 -0.12 -0.06 -0.18 c -0.021 -0.07 -0.021 -0.14 -0.021 -0.2 c 0 -0.26 0.11 -0.52 0.29 -0.71 c 0.37 -0.37 1.051 -0.37 1.41 0 c 0.19 0.19 0.3 0.45 0.3 0.71 c 0 0.07 -0.01 0.13 -0.02 0.2 c -0.01 0.06 -0.03 0.12 -0.06 0.18 c -0.021 0.06 -0.051 0.12 -0.091 0.18 c -0.04 0.05 -0.08 0.1 -0.13 0.15 c -0.04 0.04 -0.09 0.09 -0.149 0.12 c -0.051 0.04 -0.11 0.07 -0.17 0.09 c -0.061 0.03 -0.12 0.05 -0.19 0.06 C 49.7 21.47 49.63 21.48 49.569 21.48 z" style="stroke: none; stroke-width: 1; stroke-dasharray: none; stroke-linecap: butt; stroke-linejoin: miter; stroke-miterlimit: 10; fill: rgb(248,134,15); fill-rule: nonzero; opacity: 1;" transform=" matrix(1 0 0 1 0 0) " stroke-linecap="round" />
	<path d="M 57.639 47.565 H 1 c -0.552 0 -1 -0.447 -1 -1 s 0.448 -1 1 -1 h 56.639 c 0.553 0 1 0.447 1 1 S 58.191 47.565 57.639 47.565 z" style="stroke: none; stroke-width: 1; stroke-dasharray: none; stroke-linecap: butt; stroke-linejoin: miter; stroke-miterlimit: 10; fill: rgb(248,134,15); fill-rule: nonzero; opacity: 1;" transform=" matrix(1 0 0 1 0 0) " stroke-linecap="round" />
	<path d="M 72.67 10.465 h -1.164 c -0.553 0 -1 -0.448 -1 -1 s 0.447 -1 1 -1 h 1.164 c 0.553 0 1 0.448 1 1 S 73.223 10.465 72.67 10.465 z" style="stroke: none; stroke-width: 1; stroke-dasharray: none; stroke-linecap: butt; stroke-linejoin: miter; stroke-miterlimit: 10; fill: rgb(248,134,15); fill-rule: nonzero; opacity: 1;" transform=" matrix(1 0 0 1 0 0) " stroke-linecap="round" />
	<path d="M 78.506 10.465 h -1.165 c -0.553 0 -1 -0.448 -1 -1 s 0.447 -1 1 -1 h 1.165 c 0.553 0 1 0.448 1 1 S 79.059 10.465 78.506 10.465 z" style="stroke: none; stroke-width: 1; stroke-dasharray: none; stroke-linecap: butt; stroke-linejoin: miter; stroke-miterlimit: 10; fill: rgb(248,134,15); fill-rule: nonzero; opacity: 1;" transform=" matrix(1 0 0 1 0 0) " stroke-linecap="round" />
	<path d="M 75.006 8.129 c -0.553 0 -1 -0.448 -1 -1 V 5.965 c 0 -0.552 0.447 -1 1 -1 s 1 0.448 1 1 v 1.165 C 76.006 7.682 75.559 8.129 75.006 8.129 z" style="stroke: none; stroke-width: 1; stroke-dasharray: none; stroke-linecap: butt; stroke-linejoin: miter; stroke-miterlimit: 10; fill: rgb(248,134,15); fill-rule: nonzero; opacity: 1;" transform=" matrix(1 0 0 1 0 0) " stroke-linecap="round" />
	<path d="M 75.006 13.965 c -0.553 0 -1 -0.448 -1 -1 v -1.164 c 0 -0.552 0.447 -1 1 -1 s 1 0.448 1 1 v 1.164 C 76.006 13.517 75.559 13.965 75.006 13.965 z" style="stroke: none; stroke-width: 1; stroke-dasharray: none; stroke-linecap: butt; stroke-linejoin: miter; stroke-miterlimit: 10; fill: rgb(248,134,15); fill-rule: nonzero; opacity: 1;" transform=" matrix(1 0 0 1 0 0) " stroke-linecap="round" />
	<path d="M 12.67 69.465 h -1.165 c -0.552 0 -1 -0.447 -1 -1 s 0.448 -1 1 -1 h 1.165 c 0.552 0 1 0.447 1 1 S 13.223 69.465 12.67 69.465 z" style="stroke: none; stroke-width: 1; stroke-dasharray: none; stroke-linecap: butt; stroke-linejoin: miter; stroke-miterlimit: 10; fill: rgb(248,134,15); fill-rule: nonzero; opacity: 1;" transform=" matrix(1 0 0 1 0 0) " stroke-linecap="round" />
	<path d="M 15.006 67.13 c -0.552 0 -1 -0.447 -1 -1 v -1.165 c 0 -0.553 0.448 -1 1 -1 s 1 0.447 1 1 v 1.165 C 16.006 66.683 15.558 67.13 15.006 67.13 z" style="stroke: none; stroke-width: 1; stroke-dasharray: none; stroke-linecap: butt; stroke-linejoin: miter; stroke-miterlimit: 10; fill: rgb(248,134,15); fill-rule: nonzero; opacity: 1;" transform=" matrix(1 0 0 1 0 0) " stroke-linecap="round" />
	<path d="M 15.006 72.965 c -0.552 0 -1 -0.447 -1 -1 v -1.164 c 0 -0.553 0.448 -1 1 -1 s 1 0.447 1 1 v 1.164 C 16.006 72.518 15.558 72.965 15.006 72.965 z" style="stroke: none; stroke-width: 1; stroke-dasharray: none; stroke-linecap: butt; stroke-linejoin: miter; stroke-miterlimit: 10; fill: rgb(248,134,15); fill-rule: nonzero; opacity: 1;" transform=" matrix(1 0 0 1 0 0) " stroke-linecap="round" />
</g>
</svg>