<svg xmlns="http://www.w3.org/2000/svg" xmlns:xlink="http://www.w3.org/1999/xlink" version="1.1" width="256" height="256" viewBox="0 0 256 256" xml:space="preserve">

<defs>
</defs>
<g style="stroke: none; stroke-width: 0; stroke-dasharray: none; stroke-linecap: butt; stroke-linejoin: miter; stroke-miterlimit: 10; fill: none; fill-rule: nonzero; opacity: 1;" transform="translate(1.4065934065934016 1.4065934065934016) scale(2.81 2.81)" >
	<path d="M 33.303 81.948 c -0.071 0 -0.144 -0.008 -0.216 -0.023 C 15.874 78.133 3.38 62.568 3.38 44.917 c 0 -0.552 0.448 -1 1 -1 s 1 0.448 1 1 c 0 16.72 11.833 31.463 28.137 35.055 c 0.539 0.119 0.88 0.652 0.761 1.191 C 34.175 81.63 33.762 81.948 33.303 81.948 z" style="stroke: none; stroke-width: 1; stroke-dasharray: none; stroke-linecap: butt; stroke-linejoin: miter; stroke-miterlimit: 10; fill: rgb(0,35,86); fill-rule: nonzero; opacity: 1;" transform=" matrix(1 0 0 1 0 0) " stroke-linecap="round" />
	<path d="M 56.41 79.575 c -0.382 0 -0.746 -0.219 -0.913 -0.59 c -0.227 -0.503 -0.002 -1.096 0.502 -1.322 c 12.861 -5.791 21.172 -18.646 21.172 -32.747 c 0 -0.552 0.447 -1 1 -1 s 1 0.448 1 1 c 0 14.887 -8.773 28.457 -22.352 34.571 C 56.687 79.547 56.547 79.575 56.41 79.575 z" style="stroke: none; stroke-width: 1; stroke-dasharray: none; stroke-linecap: butt; stroke-linejoin: miter; stroke-miterlimit: 10; fill: rgb(0,35,86); fill-rule: nonzero; opacity: 1;" transform=" matrix(1 0 0 1 0 0) " stroke-linecap="round" />
	<path d="M 78.171 45.917 c -0.553 0 -1 -0.448 -1 -1 c 0 -13.778 -11.209 -24.987 -24.987 -24.987 c -13.778 0 -24.987 11.209 -24.987 24.987 c 0 0.552 -0.448 1 -1 1 s -1 -0.448 -1 -1 c 0 -14.881 12.106 -26.987 26.987 -26.987 c 14.881 0 26.987 12.106 26.987 26.987 C 79.171 45.469 78.724 45.917 78.171 45.917 z" style="stroke: none; stroke-width: 1; stroke-dasharray: none; stroke-linecap: butt; stroke-linejoin: miter; stroke-miterlimit: 10; fill: rgb(0,35,86); fill-rule: nonzero; opacity: 1;" transform=" matrix(1 0 0 1 0 0) " stroke-linecap="round" />
	<path d="M 38.748 58.468 c -7.472 0 -13.551 -6.079 -13.551 -13.551 c 0 -0.552 0.448 -1 1 -1 s 1 0.448 1 1 c 0 6.37 5.182 11.551 11.551 11.551 c 0.552 0 1 0.447 1 1 S 39.3 58.468 38.748 58.468 z" style="stroke: none; stroke-width: 1; stroke-dasharray: none; stroke-linecap: butt; stroke-linejoin: miter; stroke-miterlimit: 10; fill: rgb(0,35,86); fill-rule: nonzero; opacity: 1;" transform=" matrix(1 0 0 1 0 0) " stroke-linecap="round" />
	<path d="M 86.971 44.253 c -0.553 0 -1 -0.448 -1 -1 c 0 -19.793 -16.103 -35.896 -35.896 -35.896 c -3.641 0 -7.232 0.543 -10.674 1.614 c -0.526 0.163 -1.088 -0.13 -1.252 -0.658 c -0.164 -0.527 0.131 -1.088 0.658 -1.252 c 3.634 -1.13 7.425 -1.704 11.268 -1.704 c 20.896 0 37.896 17 37.896 37.896 C 87.971 43.806 87.523 44.253 86.971 44.253 z" style="stroke: none; stroke-width: 1; stroke-dasharray: none; stroke-linecap: butt; stroke-linejoin: miter; stroke-miterlimit: 10; fill: rgb(0,35,86); fill-rule: nonzero; opacity: 1;" transform=" matrix(1 0 0 1 0 0) " stroke-linecap="round" />
	<path d="M 13.18 44.253 c -0.552 0 -1 -0.448 -1 -1 c 0 -8.376 2.677 -16.314 7.742 -22.957 c 0.334 -0.439 0.962 -0.524 1.402 -0.189 c 0.439 0.335 0.523 0.962 0.189 1.402 c -4.797 6.292 -7.333 13.811 -7.333 21.744 C 14.18 43.806 13.732 44.253 13.18 44.253 z" style="stroke: none; stroke-width: 1; stroke-dasharray: none; stroke-linecap: butt; stroke-linejoin: miter; stroke-miterlimit: 10; fill: rgb(0,35,86); fill-rule: nonzero; opacity: 1;" transform=" matrix(1 0 0 1 0 0) " stroke-linecap="round" />
	<path d="M 39.167 70.24 c -14.881 0 -26.987 -12.106 -26.987 -26.987 c 0 -0.552 0.448 -1 1 -1 s 1 0.448 1 1 c 0 13.778 11.209 24.987 24.987 24.987 s 24.987 -11.209 24.987 -24.987 c 0 -0.552 0.447 -1 1 -1 s 1 0.448 1 1 C 66.154 58.134 54.048 70.24 39.167 70.24 z" style="stroke: none; stroke-width: 1; stroke-dasharray: none; stroke-linecap: butt; stroke-linejoin: miter; stroke-miterlimit: 10; fill: rgb(0,35,86); fill-rule: nonzero; opacity: 1;" transform=" matrix(1 0 0 1 0 0) " stroke-linecap="round" />
	<path d="M 65.154 44.253 c -0.553 0 -1 -0.448 -1 -1 c 0 -6.37 -6.174 -11.552 -13.762 -11.552 c -5.531 0 -9.625 1.715 -12.169 5.097 c -0.332 0.44 -0.958 0.53 -1.4 0.198 c -0.441 -0.332 -0.53 -0.959 -0.198 -1.4 c 2.942 -3.911 7.574 -5.895 13.768 -5.895 c 8.691 0 15.762 6.079 15.762 13.552 C 66.154 43.806 65.707 44.253 65.154 44.253 z" style="stroke: none; stroke-width: 1; stroke-dasharray: none; stroke-linecap: butt; stroke-linejoin: miter; stroke-miterlimit: 10; fill: rgb(0,35,86); fill-rule: nonzero; opacity: 1;" transform=" matrix(1 0 0 1 0 0) " stroke-linecap="round" />
	<path d="M 39.167 58.468 c -0.552 0 -1 -0.447 -1 -1 s 0.448 -1 1 -1 c 5.889 0 10.247 -1.722 12.952 -5.118 c 0.343 -0.432 0.972 -0.503 1.405 -0.159 c 0.432 0.344 0.503 0.974 0.159 1.405 C 50.58 56.492 45.696 58.468 39.167 58.468 z" style="stroke: none; stroke-width: 1; stroke-dasharray: none; stroke-linecap: butt; stroke-linejoin: miter; stroke-miterlimit: 10; fill: rgb(0,35,86); fill-rule: nonzero; opacity: 1;" transform=" matrix(1 0 0 1 0 0) " stroke-linecap="round" />
	<path d="M 28.49 20.502 c -3.924 0 -7.116 -3.192 -7.116 -7.116 S 24.566 6.27 28.49 6.27 s 7.116 3.192 7.116 7.116 S 32.414 20.502 28.49 20.502 z M 28.49 8.27 c -2.821 0 -5.116 2.295 -5.116 5.116 s 2.295 5.116 5.116 5.116 c 2.821 0 5.116 -2.295 5.116 -5.116 S 31.311 8.27 28.49 8.27 z" style="stroke: none; stroke-width: 1; stroke-dasharray: none; stroke-linecap: butt; stroke-linejoin: miter; stroke-miterlimit: 10; fill: rgb(0,35,86); fill-rule: nonzero; opacity: 1;" transform=" matrix(1 0 0 1 0 0) " stroke-linecap="round" />
	<path d="M 44.864 88.928 c -3.924 0 -7.116 -3.192 -7.116 -7.116 s 3.192 -7.116 7.116 -7.116 s 7.116 3.192 7.116 7.116 S 48.788 88.928 44.864 88.928 z M 44.864 76.695 c -2.821 0 -5.116 2.295 -5.116 5.116 s 2.295 5.116 5.116 5.116 s 5.116 -2.295 5.116 -5.116 S 47.686 76.695 44.864 76.695 z" style="stroke: none; stroke-width: 1; stroke-dasharray: none; stroke-linecap: butt; stroke-linejoin: miter; stroke-miterlimit: 10; fill: rgb(0,35,86); fill-rule: nonzero; opacity: 1;" transform=" matrix(1 0 0 1 0 0) " stroke-linecap="round" />
	<path d="M 42.381 45.085 h -1.642 c -0.552 0 -1 -0.448 -1 -1 s 0.448 -1 1 -1 h 1.642 c 0.552 0 1 0.448 1 1 S 42.934 45.085 42.381 45.085 z" style="stroke: none; stroke-width: 1; stroke-dasharray: none; stroke-linecap: butt; stroke-linejoin: miter; stroke-miterlimit: 10; fill: rgb(248,134,15); fill-rule: nonzero; opacity: 1;" transform=" matrix(1 0 0 1 0 0) " stroke-linecap="round" />
	<path d="M 50.612 45.085 H 48.97 c -0.553 0 -1 -0.448 -1 -1 s 0.447 -1 1 -1 h 1.643 c 0.553 0 1 0.448 1 1 S 51.165 45.085 50.612 45.085 z" style="stroke: none; stroke-width: 1; stroke-dasharray: none; stroke-linecap: butt; stroke-linejoin: miter; stroke-miterlimit: 10; fill: rgb(248,134,15); fill-rule: nonzero; opacity: 1;" transform=" matrix(1 0 0 1 0 0) " stroke-linecap="round" />
	<path d="M 45.676 41.791 c -0.552 0 -1 -0.448 -1 -1 v -1.642 c 0 -0.552 0.448 -1 1 -1 c 0.553 0 1 0.448 1 1 v 1.642 C 46.676 41.343 46.229 41.791 45.676 41.791 z" style="stroke: none; stroke-width: 1; stroke-dasharray: none; stroke-linecap: butt; stroke-linejoin: miter; stroke-miterlimit: 10; fill: rgb(248,134,15); fill-rule: nonzero; opacity: 1;" transform=" matrix(1 0 0 1 0 0) " stroke-linecap="round" />
	<path d="M 45.676 50.021 c -0.552 0 -1 -0.447 -1 -1 v -1.643 c 0 -0.553 0.448 -1 1 -1 c 0.553 0 1 0.447 1 1 v 1.643 C 46.676 49.574 46.229 50.021 45.676 50.021 z" style="stroke: none; stroke-width: 1; stroke-dasharray: none; stroke-linecap: butt; stroke-linejoin: miter; stroke-miterlimit: 10; fill: rgb(248,134,15); fill-rule: nonzero; opacity: 1;" transform=" matrix(1 0 0 1 0 0) " stroke-linecap="round" />
	<path d="M 4.77 38.27 c -0.26 0 -0.52 -0.1 -0.71 -0.29 c -0.18 -0.19 -0.29 -0.45 -0.29 -0.71 c 0 -0.06 0.01 -0.13 0.02 -0.19 c 0.01 -0.07 0.03 -0.13 0.06 -0.19 c 0.02 -0.06 0.05 -0.12 0.09 -0.17 c 0.04 -0.06 0.08 -0.11 0.12 -0.15 c 0.28 -0.28 0.73 -0.38 1.09 -0.22 c 0.13 0.05 0.24 0.12 0.33 0.22 c 0.04 0.04 0.09 0.09 0.12 0.15 c 0.04 0.05 0.07 0.11 0.09 0.17 c 0.03 0.06 0.05 0.12 0.06 0.19 c 0.01 0.06 0.02 0.13 0.02 0.19 c 0 0.26 -0.11 0.52 -0.29 0.71 C 5.29 38.17 5.03 38.27 4.77 38.27 z" style="stroke: none; stroke-width: 1; stroke-dasharray: none; stroke-linecap: butt; stroke-linejoin: miter; stroke-miterlimit: 10; fill: rgb(248,134,15); fill-rule: nonzero; opacity: 1;" transform=" matrix(1 0 0 1 0 0) " stroke-linecap="round" />
	<path d="M 6.03 26.96 c -0.07 0 -0.13 -0.01 -0.2 -0.02 c -0.06 -0.02 -0.12 -0.03 -0.18 -0.06 c -0.06 -0.02 -0.12 -0.06 -0.18 -0.09 c -0.05 -0.04 -0.1 -0.08 -0.15 -0.12 c -0.18 -0.19 -0.29 -0.45 -0.29 -0.71 c 0 -0.27 0.11 -0.52 0.29 -0.71 c 0.05 -0.05 0.1 -0.09 0.15 -0.12 c 0.06 -0.04 0.12 -0.07 0.18 -0.1 c 0.06 -0.02 0.12 -0.04 0.18 -0.05 c 0.33 -0.07 0.67 0.04 0.91 0.27 c 0.04 0.05 0.08 0.1 0.12 0.15 c 0.04 0.06 0.07 0.11 0.09 0.18 C 6.98 25.64 7 25.7 7.01 25.76 c 0.01 0.07 0.02 0.13 0.02 0.2 c 0 0.06 -0.01 0.13 -0.02 0.19 C 7 26.22 6.98 26.28 6.95 26.34 c -0.02 0.06 -0.05 0.12 -0.09 0.17 c -0.04 0.06 -0.08 0.11 -0.12 0.16 C 6.55 26.85 6.29 26.96 6.03 26.96 z" style="stroke: none; stroke-width: 1; stroke-dasharray: none; stroke-linecap: butt; stroke-linejoin: miter; stroke-miterlimit: 10; fill: rgb(248,134,15); fill-rule: nonzero; opacity: 1;" transform=" matrix(1 0 0 1 0 0) " stroke-linecap="round" />
	<path d="M 12.31 14.39 c -0.13 0 -0.26 -0.03 -0.38 -0.08 c -0.12 -0.05 -0.23 -0.12 -0.32 -0.22 c -0.19 -0.18 -0.3 -0.44 -0.3 -0.7 c 0 -0.27 0.11 -0.53 0.3 -0.71 c 0.09 -0.09 0.2 -0.17 0.32 -0.22 c 0.25 -0.1 0.52 -0.1 0.77 0 c 0.12 0.05 0.23 0.13 0.32 0.22 c 0.19 0.18 0.29 0.44 0.29 0.71 c 0 0.26 -0.1 0.52 -0.29 0.7 c -0.09 0.1 -0.2 0.17 -0.32 0.22 C 12.57 14.36 12.45 14.39 12.31 14.39 z" style="stroke: none; stroke-width: 1; stroke-dasharray: none; stroke-linecap: butt; stroke-linejoin: miter; stroke-miterlimit: 10; fill: rgb(248,134,15); fill-rule: nonzero; opacity: 1;" transform=" matrix(1 0 0 1 0 0) " stroke-linecap="round" />
	<path d="M 1 16.9 c -0.13 0 -0.26 -0.03 -0.38 -0.08 c -0.12 -0.05 -0.23 -0.12 -0.33 -0.21 c -0.09 -0.1 -0.16 -0.2 -0.21 -0.33 C 0.03 16.16 0 16.03 0 15.9 c 0 -0.26 0.11 -0.52 0.29 -0.71 c 0.1 -0.09 0.21 -0.16 0.33 -0.21 c 0.36 -0.16 0.81 -0.07 1.09 0.21 C 1.89 15.38 2 15.64 2 15.9 c 0 0.13 -0.03 0.26 -0.08 0.38 c -0.05 0.13 -0.12 0.23 -0.21 0.33 C 1.52 16.79 1.26 16.9 1 16.9 z" style="stroke: none; stroke-width: 1; stroke-dasharray: none; stroke-linecap: butt; stroke-linejoin: miter; stroke-miterlimit: 10; fill: rgb(248,134,15); fill-rule: nonzero; opacity: 1;" transform=" matrix(1 0 0 1 0 0) " stroke-linecap="round" />
	<path d="M 17.34 3.07 c -0.26 0 -0.52 -0.11 -0.7 -0.29 c -0.19 -0.19 -0.3 -0.44 -0.3 -0.71 c 0 -0.26 0.11 -0.52 0.3 -0.7 c 0.23 -0.24 0.57 -0.34 0.9 -0.28 c 0.06 0.01 0.13 0.03 0.19 0.06 c 0.06 0.02 0.11 0.06 0.17 0.09 c 0.05 0.04 0.1 0.08 0.15 0.13 c 0.19 0.18 0.29 0.44 0.29 0.7 c 0 0.27 -0.1 0.52 -0.29 0.71 C 18 2.83 17.95 2.87 17.9 2.9 c -0.06 0.04 -0.11 0.07 -0.17 0.09 c -0.06 0.03 -0.13 0.05 -0.19 0.06 C 17.47 3.06 17.41 3.07 17.34 3.07 z" style="stroke: none; stroke-width: 1; stroke-dasharray: none; stroke-linecap: butt; stroke-linejoin: miter; stroke-miterlimit: 10; fill: rgb(248,134,15); fill-rule: nonzero; opacity: 1;" transform=" matrix(1 0 0 1 0 0) " stroke-linecap="round" />
	<path d="M 86.479 50.84 c -0.26 0 -0.51 -0.1 -0.699 -0.29 c -0.101 -0.09 -0.171 -0.2 -0.221 -0.32 c -0.05 -0.13 -0.08 -0.25 -0.08 -0.39 c 0 -0.26 0.11 -0.521 0.301 -0.7 c 0.09 -0.1 0.199 -0.17 0.319 -0.22 c 0.19 -0.08 0.391 -0.101 0.58 -0.061 c 0.061 0.011 0.13 0.03 0.19 0.061 c 0.06 0.02 0.12 0.06 0.17 0.09 c 0.06 0.04 0.109 0.08 0.149 0.13 c 0.19 0.18 0.301 0.44 0.301 0.7 c 0 0.14 -0.03 0.26 -0.08 0.39 c -0.051 0.12 -0.12 0.23 -0.221 0.32 C 87 50.74 86.75 50.84 86.479 50.84 z" style="stroke: none; stroke-width: 1; stroke-dasharray: none; stroke-linecap: butt; stroke-linejoin: miter; stroke-miterlimit: 10; fill: rgb(248,134,15); fill-rule: nonzero; opacity: 1;" transform=" matrix(1 0 0 1 0 0) " stroke-linecap="round" />
	<path d="M 85.229 60.899 c -0.14 0 -0.26 -0.029 -0.39 -0.08 c -0.12 -0.05 -0.23 -0.119 -0.32 -0.21 c -0.189 -0.189 -0.29 -0.439 -0.29 -0.71 c 0 -0.13 0.021 -0.26 0.08 -0.38 c 0.05 -0.12 0.12 -0.229 0.21 -0.33 c 0.09 -0.09 0.2 -0.159 0.33 -0.21 c 0.37 -0.149 0.811 -0.069 1.09 0.21 c 0.091 0.101 0.16 0.21 0.21 0.33 c 0.051 0.12 0.08 0.25 0.08 0.38 c 0 0.271 -0.109 0.521 -0.29 0.71 c -0.1 0.091 -0.21 0.16 -0.33 0.21 C 85.49 60.87 85.359 60.899 85.229 60.899 z" style="stroke: none; stroke-width: 1; stroke-dasharray: none; stroke-linecap: butt; stroke-linejoin: miter; stroke-miterlimit: 10; fill: rgb(248,134,15); fill-rule: nonzero; opacity: 1;" transform=" matrix(1 0 0 1 0 0) " stroke-linecap="round" />
	<path d="M 80.2 72.21 c -0.131 0 -0.261 -0.021 -0.381 -0.07 c -0.119 -0.05 -0.229 -0.12 -0.329 -0.22 c -0.091 -0.09 -0.171 -0.2 -0.221 -0.32 S 79.2 71.35 79.2 71.21 c 0 -0.13 0.02 -0.26 0.069 -0.38 c 0.061 -0.12 0.13 -0.23 0.221 -0.32 c 0.229 -0.229 0.579 -0.34 0.909 -0.28 c 0.061 0.021 0.12 0.04 0.181 0.061 c 0.06 0.029 0.12 0.06 0.18 0.09 c 0.05 0.04 0.1 0.08 0.15 0.13 c 0.09 0.09 0.159 0.2 0.21 0.32 c 0.05 0.12 0.08 0.25 0.08 0.38 c 0 0.14 -0.03 0.27 -0.08 0.39 c -0.051 0.12 -0.12 0.23 -0.21 0.32 c -0.101 0.1 -0.21 0.17 -0.33 0.22 S 80.33 72.21 80.2 72.21 z" style="stroke: none; stroke-width: 1; stroke-dasharray: none; stroke-linecap: butt; stroke-linejoin: miter; stroke-miterlimit: 10; fill: rgb(248,134,15); fill-rule: nonzero; opacity: 1;" transform=" matrix(1 0 0 1 0 0) " stroke-linecap="round" />
	<path d="M 68.89 84.79 c -0.14 0 -0.27 -0.03 -0.39 -0.08 s -0.23 -0.12 -0.32 -0.22 c -0.189 -0.19 -0.29 -0.44 -0.29 -0.7 c 0 -0.141 0.021 -0.26 0.07 -0.391 c 0.05 -0.119 0.13 -0.229 0.22 -0.319 s 0.2 -0.17 0.32 -0.221 c 0.37 -0.149 0.819 -0.06 1.09 0.221 c 0.09 0.09 0.17 0.2 0.22 0.319 c 0.05 0.12 0.07 0.25 0.07 0.391 c 0 0.26 -0.1 0.52 -0.29 0.7 C 69.399 84.68 69.149 84.79 68.89 84.79 z" style="stroke: none; stroke-width: 1; stroke-dasharray: none; stroke-linecap: butt; stroke-linejoin: miter; stroke-miterlimit: 10; fill: rgb(248,134,15); fill-rule: nonzero; opacity: 1;" transform=" matrix(1 0 0 1 0 0) " stroke-linecap="round" />
	<path d="M 78.939 81.02 c -0.13 0 -0.26 -0.029 -0.38 -0.08 c -0.12 -0.05 -0.229 -0.12 -0.33 -0.22 c -0.09 -0.09 -0.16 -0.2 -0.21 -0.32 c -0.05 -0.119 -0.08 -0.25 -0.08 -0.38 c 0 -0.14 0.03 -0.26 0.08 -0.39 c 0.05 -0.12 0.12 -0.23 0.21 -0.32 c 0.38 -0.38 1.051 -0.38 1.42 0 c 0.091 0.09 0.16 0.2 0.21 0.32 c 0.061 0.12 0.08 0.25 0.08 0.39 c 0 0.13 -0.02 0.261 -0.069 0.38 c -0.051 0.12 -0.13 0.23 -0.221 0.32 c -0.1 0.1 -0.199 0.17 -0.33 0.22 C 79.2 80.99 79.069 81.02 78.939 81.02 z" style="stroke: none; stroke-width: 1; stroke-dasharray: none; stroke-linecap: butt; stroke-linejoin: miter; stroke-miterlimit: 10; fill: rgb(248,134,15); fill-rule: nonzero; opacity: 1;" transform=" matrix(1 0 0 1 0 0) " stroke-linecap="round" />
	<path d="M 89 69.7 c -0.271 0 -0.521 -0.101 -0.71 -0.29 c -0.09 -0.101 -0.16 -0.21 -0.21 -0.33 C 88.02 68.96 88 68.83 88 68.7 c 0 -0.261 0.109 -0.521 0.29 -0.71 c 0.38 -0.37 1.04 -0.37 1.42 0 C 89.89 68.18 90 68.439 90 68.7 c 0 0.13 -0.03 0.26 -0.08 0.38 s -0.12 0.229 -0.21 0.33 C 89.52 69.6 89.27 69.7 89 69.7 z" style="stroke: none; stroke-width: 1; stroke-dasharray: none; stroke-linecap: butt; stroke-linejoin: miter; stroke-miterlimit: 10; fill: rgb(248,134,15); fill-rule: nonzero; opacity: 1;" transform=" matrix(1 0 0 1 0 0) " stroke-linecap="round" />
</g>
</svg>