<svg xmlns="http://www.w3.org/2000/svg" xmlns:xlink="http://www.w3.org/1999/xlink" version="1.1" width="256" height="256" viewBox="0 0 256 256" xml:space="preserve">

<defs>
</defs>
<g style="stroke: none; stroke-width: 0; stroke-dasharray: none; stroke-linecap: butt; stroke-linejoin: miter; stroke-miterlimit: 10; fill: none; fill-rule: nonzero; opacity: 1;" transform="translate(1.4065934065934016 1.4065934065934016) scale(2.81 2.81)" >
	<path d="M 8.094 11.017 c -2.802 0 -5.082 -2.28 -5.082 -5.082 c 0 -2.803 2.28 -5.083 5.082 -5.083 c 2.803 0 5.083 2.28 5.083 5.083 C 13.177 8.737 10.897 11.017 8.094 11.017 z M 8.094 2.873 c -1.688 0 -3.062 1.374 -3.062 3.062 s 1.373 3.062 3.062 3.062 s 3.062 -1.373 3.062 -3.062 S 9.783 2.873 8.094 2.873 z" style="stroke: none; stroke-width: 1; stroke-dasharray: none; stroke-linecap: butt; stroke-linejoin: miter; stroke-miterlimit: 10; fill: rgb(0,35,86); fill-rule: nonzero; opacity: 1;" transform=" matrix(1 0 0 1 0 0) " stroke-linecap="round" />
	<path d="M 79.965 80.137 c -2.802 0 -5.082 -2.28 -5.082 -5.083 c 0 -2.803 2.28 -5.083 5.082 -5.083 c 2.803 0 5.083 2.28 5.083 5.083 C 85.047 77.857 82.768 80.137 79.965 80.137 z M 79.965 71.993 c -1.688 0 -3.061 1.373 -3.061 3.062 c 0 1.689 1.373 3.062 3.061 3.062 c 1.689 0 3.062 -1.373 3.062 -3.062 C 83.027 73.366 81.654 71.993 79.965 71.993 z" style="stroke: none; stroke-width: 1; stroke-dasharray: none; stroke-linecap: butt; stroke-linejoin: miter; stroke-miterlimit: 10; fill: rgb(0,35,86); fill-rule: nonzero; opacity: 1;" transform=" matrix(1 0 0 1 0 0) " stroke-linecap="round" />
	<path d="M 44.161 73.199 c -15.549 0 -28.199 -12.65 -28.199 -28.199 c 0 -15.428 12.552 -28.075 27.979 -28.193 c 0.003 0 0.005 0 0.008 0 c 0.389 0 0.744 0.223 0.912 0.575 c 0.169 0.354 0.117 0.774 -0.132 1.077 c -3.972 4.829 -6.16 10.937 -6.16 17.199 c 0 14.271 11.148 26.145 25.381 27.033 c 0.392 0.025 0.733 0.273 0.877 0.638 c 0.143 0.365 0.063 0.78 -0.207 1.065 C 59.238 70.072 51.972 73.199 44.161 73.199 z M 41.836 18.929 C 28.502 20.114 17.983 31.392 17.983 45 c 0 14.435 11.744 26.179 26.178 26.179 c 6.539 0 12.666 -2.361 17.472 -6.692 C 47.401 62.515 36.55 50.253 36.55 35.658 C 36.55 29.666 38.413 23.805 41.836 18.929 z" style="stroke: none; stroke-width: 1; stroke-dasharray: none; stroke-linecap: butt; stroke-linejoin: miter; stroke-miterlimit: 10; fill: rgb(0,35,86); fill-rule: nonzero; opacity: 1;" transform=" matrix(1 0 0 1 0 0) " stroke-linecap="round" />
	<path d="M 1.005 36.918 c -0.262 0 -0.525 -0.101 -0.707 -0.293 c -0.101 -0.091 -0.172 -0.202 -0.222 -0.324 c -0.05 -0.121 -0.081 -0.253 -0.081 -0.384 c 0 -0.142 0.031 -0.273 0.081 -0.394 c 0.05 -0.121 0.121 -0.232 0.222 -0.323 c 0.232 -0.232 0.576 -0.343 0.909 -0.283 c 0.061 0.02 0.121 0.04 0.192 0.06 c 0.061 0.031 0.111 0.061 0.172 0.091 c 0.051 0.04 0.101 0.081 0.151 0.131 c 0.192 0.182 0.293 0.444 0.293 0.717 c 0 0.131 -0.02 0.263 -0.071 0.384 c -0.051 0.121 -0.131 0.232 -0.222 0.324 c -0.05 0.05 -0.101 0.091 -0.151 0.131 c -0.061 0.03 -0.111 0.061 -0.172 0.091 c -0.071 0.02 -0.131 0.04 -0.192 0.051 C 1.136 36.918 1.076 36.918 1.005 36.918 z" style="stroke: none; stroke-width: 1; stroke-dasharray: none; stroke-linecap: butt; stroke-linejoin: miter; stroke-miterlimit: 10; fill: rgb(248,134,15); fill-rule: nonzero; opacity: 1;" transform=" matrix(1 0 0 1 0 0) " stroke-linecap="round" />
	<path d="M 58.486 82.6 c -0.272 0 -0.525 -0.101 -0.717 -0.293 c -0.091 -0.091 -0.162 -0.202 -0.212 -0.324 c -0.06 -0.131 -0.081 -0.253 -0.081 -0.394 c 0 -0.131 0.021 -0.262 0.081 -0.384 c 0.05 -0.121 0.121 -0.233 0.212 -0.333 c 0.374 -0.374 1.061 -0.374 1.434 0 c 0.091 0.101 0.162 0.212 0.212 0.333 c 0.05 0.121 0.081 0.253 0.081 0.384 c 0 0.141 -0.031 0.262 -0.081 0.394 c -0.05 0.121 -0.121 0.233 -0.212 0.324 c -0.101 0.091 -0.212 0.172 -0.333 0.222 C 58.748 82.58 58.617 82.6 58.486 82.6 z" style="stroke: none; stroke-width: 1; stroke-dasharray: none; stroke-linecap: butt; stroke-linejoin: miter; stroke-miterlimit: 10; fill: rgb(248,134,15); fill-rule: nonzero; opacity: 1;" transform=" matrix(1 0 0 1 0 0) " stroke-linecap="round" />
	<path d="M 42.98 1.561 c -0.142 0 -0.263 -0.031 -0.394 -0.081 c -0.121 -0.051 -0.232 -0.121 -0.323 -0.212 c -0.192 -0.192 -0.293 -0.455 -0.293 -0.717 c 0 -0.263 0.101 -0.525 0.293 -0.717 c 0.091 -0.091 0.202 -0.162 0.323 -0.213 c 0.192 -0.08 0.394 -0.101 0.586 -0.06 c 0.061 0.01 0.131 0.03 0.192 0.06 c 0.061 0.02 0.121 0.051 0.172 0.091 c 0.061 0.04 0.111 0.081 0.151 0.121 c 0.101 0.101 0.172 0.202 0.222 0.333 c 0.05 0.121 0.081 0.253 0.081 0.384 c 0 0.262 -0.111 0.525 -0.303 0.717 c -0.04 0.04 -0.091 0.081 -0.151 0.121 c -0.05 0.04 -0.111 0.071 -0.172 0.091 c -0.061 0.03 -0.131 0.05 -0.192 0.061 C 43.111 1.551 43.04 1.561 42.98 1.561 z" style="stroke: none; stroke-width: 1; stroke-dasharray: none; stroke-linecap: butt; stroke-linejoin: miter; stroke-miterlimit: 10; fill: rgb(248,134,15); fill-rule: nonzero; opacity: 1;" transform=" matrix(1 0 0 1 0 0) " stroke-linecap="round" />
	<path d="M 7.77 72.885 H 6.464 c -0.558 0 -1.01 -0.452 -1.01 -1.01 s 0.452 -1.01 1.01 -1.01 H 7.77 c 0.558 0 1.01 0.452 1.01 1.01 S 8.328 72.885 7.77 72.885 z" style="stroke: none; stroke-width: 1; stroke-dasharray: none; stroke-linecap: butt; stroke-linejoin: miter; stroke-miterlimit: 10; fill: rgb(248,134,15); fill-rule: nonzero; opacity: 1;" transform=" matrix(1 0 0 1 0 0) " stroke-linecap="round" />
	<path d="M 14.32 72.885 h -1.307 c -0.558 0 -1.01 -0.452 -1.01 -1.01 s 0.452 -1.01 1.01 -1.01 h 1.307 c 0.558 0 1.01 0.452 1.01 1.01 S 14.878 72.885 14.32 72.885 z" style="stroke: none; stroke-width: 1; stroke-dasharray: none; stroke-linecap: butt; stroke-linejoin: miter; stroke-miterlimit: 10; fill: rgb(248,134,15); fill-rule: nonzero; opacity: 1;" transform=" matrix(1 0 0 1 0 0) " stroke-linecap="round" />
	<path d="M 10.392 70.264 c -0.558 0 -1.01 -0.452 -1.01 -1.01 v -1.307 c 0 -0.558 0.452 -1.01 1.01 -1.01 c 0.558 0 1.01 0.452 1.01 1.01 v 1.307 C 11.402 69.812 10.95 70.264 10.392 70.264 z" style="stroke: none; stroke-width: 1; stroke-dasharray: none; stroke-linecap: butt; stroke-linejoin: miter; stroke-miterlimit: 10; fill: rgb(248,134,15); fill-rule: nonzero; opacity: 1;" transform=" matrix(1 0 0 1 0 0) " stroke-linecap="round" />
	<path d="M 10.392 76.814 c -0.558 0 -1.01 -0.452 -1.01 -1.01 v -1.307 c 0 -0.558 0.452 -1.01 1.01 -1.01 c 0.558 0 1.01 0.452 1.01 1.01 v 1.307 C 11.402 76.362 10.95 76.814 10.392 76.814 z" style="stroke: none; stroke-width: 1; stroke-dasharray: none; stroke-linecap: butt; stroke-linejoin: miter; stroke-miterlimit: 10; fill: rgb(248,134,15); fill-rule: nonzero; opacity: 1;" transform=" matrix(1 0 0 1 0 0) " stroke-linecap="round" />
	<path d="M 59.217 35.096 H 57.91 c -0.558 0 -1.01 -0.452 -1.01 -1.01 s 0.452 -1.01 1.01 -1.01 h 1.307 c 0.558 0 1.01 0.452 1.01 1.01 S 59.775 35.096 59.217 35.096 z" style="stroke: none; stroke-width: 1; stroke-dasharray: none; stroke-linecap: butt; stroke-linejoin: miter; stroke-miterlimit: 10; fill: rgb(248,134,15); fill-rule: nonzero; opacity: 1;" transform=" matrix(1 0 0 1 0 0) " stroke-linecap="round" />
	<path d="M 65.767 35.096 h -1.307 c -0.558 0 -1.01 -0.452 -1.01 -1.01 s 0.452 -1.01 1.01 -1.01 h 1.307 c 0.558 0 1.01 0.452 1.01 1.01 S 66.325 35.096 65.767 35.096 z" style="stroke: none; stroke-width: 1; stroke-dasharray: none; stroke-linecap: butt; stroke-linejoin: miter; stroke-miterlimit: 10; fill: rgb(248,134,15); fill-rule: nonzero; opacity: 1;" transform=" matrix(1 0 0 1 0 0) " stroke-linecap="round" />
	<path d="M 61.838 32.474 c -0.558 0 -1.01 -0.452 -1.01 -1.01 v -1.307 c 0 -0.558 0.452 -1.01 1.01 -1.01 c 0.558 0 1.01 0.452 1.01 1.01 v 1.307 C 62.848 32.022 62.397 32.474 61.838 32.474 z" style="stroke: none; stroke-width: 1; stroke-dasharray: none; stroke-linecap: butt; stroke-linejoin: miter; stroke-miterlimit: 10; fill: rgb(248,134,15); fill-rule: nonzero; opacity: 1;" transform=" matrix(1 0 0 1 0 0) " stroke-linecap="round" />
	<path d="M 61.838 39.024 c -0.558 0 -1.01 -0.452 -1.01 -1.01 v -1.307 c 0 -0.558 0.452 -1.01 1.01 -1.01 c 0.558 0 1.01 0.452 1.01 1.01 v 1.307 C 62.848 38.572 62.397 39.024 61.838 39.024 z" style="stroke: none; stroke-width: 1; stroke-dasharray: none; stroke-linecap: butt; stroke-linejoin: miter; stroke-miterlimit: 10; fill: rgb(248,134,15); fill-rule: nonzero; opacity: 1;" transform=" matrix(1 0 0 1 0 0) " stroke-linecap="round" />
	<path d="M 88.995 56.556 c -0.272 0 -0.525 -0.11 -0.717 -0.293 c -0.192 -0.191 -0.293 -0.454 -0.293 -0.717 c 0 -0.131 0.02 -0.262 0.071 -0.384 c 0.05 -0.121 0.131 -0.232 0.222 -0.333 c 0.091 -0.091 0.202 -0.162 0.324 -0.212 c 0.06 -0.03 0.131 -0.05 0.191 -0.06 c 0.333 -0.071 0.688 0.04 0.91 0.272 c 0.101 0.102 0.172 0.202 0.222 0.333 c 0.05 0.121 0.071 0.253 0.071 0.384 c 0 0.273 -0.102 0.526 -0.293 0.717 C 89.519 56.446 89.257 56.556 88.995 56.556 z" style="stroke: none; stroke-width: 1; stroke-dasharray: none; stroke-linecap: butt; stroke-linejoin: miter; stroke-miterlimit: 10; fill: rgb(248,134,15); fill-rule: nonzero; opacity: 1;" transform=" matrix(1 0 0 1 0 0) " stroke-linecap="round" />
	<path d="M 24.816 90.459 c -0.132 0 -0.263 -0.031 -0.384 -0.081 c -0.121 -0.05 -0.232 -0.121 -0.333 -0.212 c -0.192 -0.192 -0.293 -0.445 -0.293 -0.717 c 0 -0.262 0.111 -0.526 0.293 -0.717 c 0.05 -0.04 0.101 -0.091 0.151 -0.121 c 0.061 -0.04 0.121 -0.071 0.182 -0.091 c 0.061 -0.031 0.121 -0.05 0.182 -0.061 c 0.202 -0.04 0.404 -0.02 0.586 0.061 c 0.121 0.05 0.232 0.121 0.333 0.212 c 0.182 0.191 0.293 0.455 0.293 0.717 c 0 0.131 -0.031 0.262 -0.081 0.384 c -0.051 0.121 -0.121 0.232 -0.212 0.333 c -0.101 0.091 -0.212 0.162 -0.333 0.212 C 25.078 90.429 24.947 90.459 24.816 90.459 z" style="stroke: none; stroke-width: 1; stroke-dasharray: none; stroke-linecap: butt; stroke-linejoin: miter; stroke-miterlimit: 10; fill: rgb(248,134,15); fill-rule: nonzero; opacity: 1;" transform=" matrix(1 0 0 1 0 0) " stroke-linecap="round" />
	<path d="M 69.689 9.249 c -0.262 0 -0.525 -0.111 -0.706 -0.303 c -0.102 -0.091 -0.173 -0.202 -0.223 -0.324 c -0.05 -0.121 -0.081 -0.253 -0.081 -0.384 c 0 -0.273 0.111 -0.525 0.304 -0.717 c 0.232 -0.232 0.575 -0.343 0.909 -0.273 c 0.061 0.01 0.131 0.03 0.182 0.05 c 0.071 0.031 0.121 0.061 0.183 0.091 c 0.05 0.04 0.101 0.08 0.151 0.131 c 0.092 0.091 0.162 0.202 0.223 0.323 c 0.05 0.131 0.07 0.263 0.07 0.394 c 0 0.131 -0.02 0.262 -0.07 0.384 c -0.051 0.121 -0.131 0.232 -0.223 0.324 c -0.05 0.05 -0.101 0.091 -0.151 0.131 c -0.061 0.03 -0.111 0.071 -0.183 0.091 c -0.05 0.031 -0.12 0.04 -0.182 0.061 C 69.82 9.238 69.76 9.249 69.689 9.249 z" style="stroke: none; stroke-width: 1; stroke-dasharray: none; stroke-linecap: butt; stroke-linejoin: miter; stroke-miterlimit: 10; fill: rgb(248,134,15); fill-rule: nonzero; opacity: 1;" transform=" matrix(1 0 0 1 0 0) " stroke-linecap="round" />
	<path d="M 81.923 37.777 c -0.272 0 -0.536 -0.111 -0.717 -0.303 c -0.091 -0.091 -0.172 -0.202 -0.222 -0.323 c -0.051 -0.121 -0.071 -0.253 -0.071 -0.384 c 0 -0.141 0.02 -0.262 0.071 -0.394 c 0.05 -0.121 0.131 -0.232 0.222 -0.324 c 0.374 -0.373 1.051 -0.384 1.425 0 c 0.191 0.192 0.303 0.444 0.303 0.717 c 0 0.263 -0.111 0.525 -0.303 0.707 C 82.448 37.666 82.185 37.777 81.923 37.777 z" style="stroke: none; stroke-width: 1; stroke-dasharray: none; stroke-linecap: butt; stroke-linejoin: miter; stroke-miterlimit: 10; fill: rgb(248,134,15); fill-rule: nonzero; opacity: 1;" transform=" matrix(1 0 0 1 0 0) " stroke-linecap="round" />
</g>
</svg>